#!OML:ASF H:\Punching\Project 1\Capture day 1\Session 1\female.ASF
:FULLY-SPECIFIED
:DEGREES
1466
root -3.56552 15.6564 11.151 -166.052 35.7303 -178.433
lowerback -6.41287 -0.83632 -0.208381
upperback -5.8515 -0.75944 0.197687
thorax -2.43489 -0.221167 0.28241
lowerneck -8.94522 5.92134 16.3316
upperneck 38.7911 14.3183 -10.7727
head 17.9657 8.49247 -4.80548
rclavicle -1.58531e-014 -1.43125e-014
rhumerus -39.041 -5.34055 -73.4848
rradius 39.7402
rwrist 0.849616
rhand -11.3479 -5.70876
rfingers 7.12502
rthumb 14.6853 -35.1687
lclavicle -1.58531e-014 -1.43125e-014
lhumerus -42.0995 8.97495 70.5056
lradius 34.3402
lwrist -19.0044
lhand -6.57979 14.2716
lfingers 7.12502
lthumb 19.2749 43.3364
rfemur -31.9529 -0.257501 19.2607
rtibia 58.8233
rfoot -17.4512 -15.9031
rtoes -7.05204
lfemur -12.5354 -7.57617 -30.131
ltibia 18.9564
lfoot -16.1773 8.32311
ltoes 15.3952
1467
root -3.53006 15.653 11.1091 -166.085 34.4205 -178.531
lowerback -6.26305 -0.935284 -0.371507
upperback -5.80246 -0.888873 0.184687
thorax -2.46355 -0.282187 0.356478
lowerneck -9.18046 5.76855 16.1407
upperneck 38.7863 13.975 -10.5778
head 17.8984 8.33343 -4.74234
rclavicle -4.14901e-014 -2.48481e-014
rhumerus -39.073 -5.19101 -73.5767
rradius 39.7915
rwrist 1.1104
rhand -11.0268 -5.62075
rfingers 7.12502
rthumb 14.9947 -35.0578
lclavicle -4.14901e-014 -2.48481e-014
lhumerus -41.7117 8.66331 71.2018
lradius 34.6677
lwrist -18.8047
lhand -6.50178 14.282
lfingers 7.12502
lthumb 19.3499 43.3393
rfemur -32.6477 0.194586 19.3053
rtibia 58.0649
rfoot -17.843 -16.0107
rtoes -7.78379
lfemur -12.3765 -7.90416 -30.046
ltibia 19.0637
lfoot -16.3096 7.74287
ltoes 15.6891
1468
root -3.49387 15.6504 11.0669 -166.109 33.1302 -178.627
lowerback -6.11054 -1.02085 -0.536468
upperback -5.74872 -1.00152 0.16292
thorax -2.48859 -0.335157 0.423624
lowerneck -9.43433 5.61249 15.9712
upperneck 38.7742 13.6156 -10.3892
head 17.8341 8.16844 -4.68865
rclavicle 2.21956e-014 2.18663e-015
rhumerus -39.1013 -5.11314 -73.6149
rradius 39.7996
rwrist 1.41042
rhand -10.6802 -5.49663
rfingers 7.12502
rthumb 15.3285 -34.9085
lclavicle 2.21956e-014 2.18663e-015
lhumerus -41.3267 8.31865 71.913
lradius 35.0021
lwrist -18.5726
lhand -6.44548 14.3031
lfingers 7.12502
lthumb 19.4041 43.355
rfemur -33.3348 0.612682 19.3497
rtibia 57.212
rfoot -18.2061 -16.0617
rtoes -8.46401
lfemur -12.1833 -8.13537 -29.965
ltibia 19.0887
lfoot -16.4059 7.1134
ltoes 16.0345
1469
root -3.45701 15.6486 11.0241 -166.128 31.8573 -178.725
lowerback -5.95625 -1.10115 -0.709001
upperback -5.69259 -1.10768 0.141911
thorax -2.51165 -0.384756 0.496399
lowerneck -9.69271 5.45767 15.802
upperneck 38.753 13.2534 -10.2001
head 17.7679 8.00139 -4.63509
rclavicle -2.74292e-014 9.14409e-015
rhumerus -39.124 -5.06414 -73.6053
rradius 39.769
rwrist 1.71061
rhand -10.338 -5.34181
rfingers 7.12502
rthumb 15.6582 -34.7282
lclavicle -2.74292e-014 9.14409e-015
lhumerus -40.9618 7.97356 72.6305
lradius 35.3506
lwrist -18.3104
lhand -6.39698 14.3331
lfingers 7.12502
lthumb 19.4507 43.3803
rfemur -34.0044 1.00409 19.3827
rtibia 56.2694
rfoot -18.5765 -16.023
rtoes -8.95477
lfemur -11.9461 -8.28755 -29.8919
ltibia 19.0235
lfoot -16.4699 6.47385
ltoes 16.2697
1470
root -3.41975 15.648 10.9796 -166.152 30.6203 -178.836
lowerback -5.79909 -1.17529 -0.895771
upperback -5.63826 -1.20566 0.120791
thorax -2.53761 -0.429766 0.577711
lowerneck -9.93741 5.30407 15.6395
upperneck 38.72 12.8968 -10.0212
head 17.6971 7.83676 -4.58667
rclavicle -4.56397e-014 1.98785e-016
rhumerus -39.1421 -5.0454 -73.5447
rradius 39.6886
rwrist 2.01923
rhand -9.97486 -5.0928
rfingers 7.12502
rthumb 16.0079 -34.4514
lclavicle -4.56397e-014 1.98785e-016
lhumerus -40.6352 7.63647 73.3477
lradius 35.7095
lwrist -18.0269
lhand -6.42231 14.346
lfingers 7.12502
lthumb 19.4263 43.3956
rfemur -34.6486 1.3795 19.3912
rtibia 55.2381
rfoot -18.9441 -15.9045
rtoes -9.31769
lfemur -11.6613 -8.39195 -29.8384
ltibia 18.8705
lfoot -16.4955 5.83919
ltoes 16.5182
1471
root -3.38232 15.6483 10.933 -166.177 29.4133 -178.95
lowerback -5.637 -1.23937 -1.08429
upperback -5.58596 -1.29076 0.101931
thorax -2.56818 -0.468186 0.663174
lowerneck -10.1717 5.15075 15.4681
upperneck 38.6782 12.54 -9.83416
head 17.6194 7.6718 -4.53294
rclavicle -6.83788e-014 -1.15295e-014
rhumerus -39.1665 -5.02823 -73.4529
rradius 39.5892
rwrist 2.26894
rhand -9.65889 -4.87208
rfingers 7.12502
rthumb 16.3121 -34.206
lclavicle -6.83788e-014 -1.15295e-014
lhumerus -40.3398 7.3304 74.0514
lradius 36.0921
lwrist -17.7295
lhand -6.43206 14.3634
lfingers 7.12502
lthumb 19.417 43.4139
rfemur -35.2591 1.73546 19.387
rtibia 54.1152
rfoot -19.2868 -15.7266
rtoes -9.65563
lfemur -11.3238 -8.49256 -29.7934
ltibia 18.6312
lfoot -16.4989 5.24871
ltoes 16.6796
